<?xml version="1.0" encoding="UTF-8" standalone="no"?>
<!-- Created with Inkscape (http://www.inkscape.org/) -->
<svg
   xmlns:dc="http://purl.org/dc/elements/1.1/"
   xmlns:cc="http://creativecommons.org/ns#"
   xmlns:rdf="http://www.w3.org/1999/02/22-rdf-syntax-ns#"
   xmlns:svg="http://www.w3.org/2000/svg"
   xmlns="http://www.w3.org/2000/svg"
   xmlns:sodipodi="http://sodipodi.sourceforge.net/DTD/sodipodi-0.dtd"
   xmlns:inkscape="http://www.inkscape.org/namespaces/inkscape"
   width="528.3924"
   height="338.00513"
   id="svg2"
   sodipodi:version="0.32"
   inkscape:version="0.46"
   version="1.0"
   sodipodi:docname="whole-network-2.svg"
   inkscape:output_extension="org.inkscape.output.svg.inkscape">
  <defs
     id="defs4">
    <marker
       inkscape:stockid="Arrow1Send"
       orient="auto"
       refY="0"
       refX="0"
       id="Arrow1Send"
       style="overflow:visible">
      <path
         id="path4525"
         d="M 0,0 L 5,-5 L -12.5,0 L 5,5 L 0,0 z"
         style="fill-rule:evenodd;stroke:#000000;stroke-width:1pt;marker-start:none"
         transform="matrix(-0.2,0,0,-0.2,-1.2,0)" />
    </marker>
    <marker
       inkscape:stockid="Arrow1Sstart"
       orient="auto"
       refY="0"
       refX="0"
       id="Arrow1Sstart"
       style="overflow:visible">
      <path
         id="path4522"
         d="M 0,0 L 5,-5 L -12.5,0 L 5,5 L 0,0 z"
         style="fill-rule:evenodd;stroke:#000000;stroke-width:1pt;marker-start:none"
         transform="matrix(0.2,0,0,0.2,1.2,0)" />
    </marker>
    <marker
       inkscape:stockid="Arrow1Mstart"
       orient="auto"
       refY="0"
       refX="0"
       id="Arrow1Mstart"
       style="overflow:visible">
      <path
         id="path4516"
         d="M 0,0 L 5,-5 L -12.5,0 L 5,5 L 0,0 z"
         style="fill-rule:evenodd;stroke:#000000;stroke-width:1pt;marker-start:none"
         transform="matrix(0.4,0,0,0.4,4,0)" />
    </marker>
    <marker
       inkscape:stockid="Arrow1Mend"
       orient="auto"
       refY="0"
       refX="0"
       id="Arrow1Mend"
       style="overflow:visible">
      <path
         id="path4227"
         d="M 0,0 L 5,-5 L -12.5,0 L 5,5 L 0,0 z"
         style="fill-rule:evenodd;stroke:#000000;stroke-width:1pt;marker-start:none"
         transform="matrix(-0.4,0,0,-0.4,-4,0)" />
    </marker>
    <marker
       inkscape:stockid="Arrow2Lend"
       orient="auto"
       refY="0"
       refX="0"
       id="Arrow2Lend"
       style="overflow:visible">
      <path
         id="path4239"
         style="font-size:12px;fill-rule:evenodd;stroke-width:0.625;stroke-linejoin:round"
         d="M 8.7185878,4.0337352 L -2.2072895,0.016013256 L 8.7185884,-4.0017078 C 6.97309,-1.6296469 6.9831476,1.6157441 8.7185878,4.0337352 z"
         transform="matrix(-1.1,0,0,-1.1,-1.1,0)" />
    </marker>
    <marker
       inkscape:stockid="Arrow1Lend"
       orient="auto"
       refY="0"
       refX="0"
       id="Arrow1Lend"
       style="overflow:visible">
      <path
         id="path4221"
         d="M 0,0 L 5,-5 L -12.5,0 L 5,5 L 0,0 z"
         style="fill-rule:evenodd;stroke:#000000;stroke-width:1pt;marker-start:none"
         transform="matrix(-0.8,0,0,-0.8,-10,0)" />
    </marker>
    <inkscape:perspective
       sodipodi:type="inkscape:persp3d"
       inkscape:vp_x="0 : 526.18109 : 1"
       inkscape:vp_y="0 : 1000 : 0"
       inkscape:vp_z="744.09448 : 526.18109 : 1"
       inkscape:persp3d-origin="372.04724 : 350.78739 : 1"
       id="perspective10" />
  </defs>
  <sodipodi:namedview
     id="base"
     pagecolor="#ffffff"
     bordercolor="#666666"
     borderopacity="1.0"
     gridtolerance="10000"
     guidetolerance="10"
     objecttolerance="10"
     inkscape:pageopacity="0.0"
     inkscape:pageshadow="2"
     inkscape:zoom="1"
     inkscape:cx="327.27717"
     inkscape:cy="42.833044"
     inkscape:document-units="px"
     inkscape:current-layer="layer1"
     showgrid="true"
     inkscape:window-width="1188"
     inkscape:window-height="1575"
     inkscape:window-x="0"
     inkscape:window-y="0">
    <inkscape:grid
       type="xygrid"
       id="grid4190"
       visible="true"
       enabled="true"
       spacingx="10px"
       spacingy="10px"
       empspacing="10" />
  </sodipodi:namedview>
  <metadata
     id="metadata7">
    <rdf:RDF>
      <cc:Work
         rdf:about="">
        <dc:format>image/svg+xml</dc:format>
        <dc:type
           rdf:resource="http://purl.org/dc/dcmitype/StillImage" />
      </cc:Work>
    </rdf:RDF>
  </metadata>
  <g
     inkscape:label="Layer 1"
     inkscape:groupmode="layer"
     id="layer1"
     transform="translate(-522.12943,-486.16483)">
    <g
       transform="matrix(-1.1515275e-2,-0.9999337,0.9999337,-1.1515275e-2,-71.26051,1517.2781)"
       id="g3339">
      <path
         sodipodi:nodetypes="cc"
         transform="translate(319.14847,267.35953)"
         id="path3341"
         d="M 390,628 L 420,598"
         style="fill:none;fill-rule:evenodd;stroke:#000000;stroke-width:1px;stroke-linecap:butt;stroke-linejoin:miter;stroke-opacity:1" />
      <path
         transform="translate(404.14847,232.30923)"
         d="M 310,663 A 5,5 0 1 1 300,663 A 5,5 0 1 1 310,663 z"
         sodipodi:ry="5"
         sodipodi:rx="5"
         sodipodi:cy="663"
         sodipodi:cx="305"
         id="path3343"
         style="opacity:1;fill:#00ff00;fill-opacity:1;fill-rule:nonzero;stroke:#000000;stroke-width:2;stroke-linecap:butt;stroke-miterlimit:4;stroke-dasharray:none;stroke-dashoffset:0;stroke-opacity:1"
         sodipodi:type="arc" />
    </g>
    <g
       transform="matrix(0.4124957,-0.9109596,0.9109596,0.4124957,-344.40796,1094.1164)"
       id="g3375">
      <path
         sodipodi:nodetypes="cc"
         transform="translate(319.14847,267.35953)"
         id="path3377"
         d="M 390,628 L 420,598"
         style="fill:none;fill-rule:evenodd;stroke:#000000;stroke-width:1px;stroke-linecap:butt;stroke-linejoin:miter;stroke-opacity:1" />
      <path
         transform="translate(404.14847,232.30923)"
         d="M 310,663 A 5,5 0 1 1 300,663 A 5,5 0 1 1 310,663 z"
         sodipodi:ry="5"
         sodipodi:rx="5"
         sodipodi:cy="663"
         sodipodi:cx="305"
         id="path3379"
         style="opacity:1;fill:#00ff00;fill-opacity:1;fill-rule:nonzero;stroke:#000000;stroke-width:2;stroke-linecap:butt;stroke-miterlimit:4;stroke-dasharray:none;stroke-dashoffset:0;stroke-opacity:1"
         sodipodi:type="arc" />
    </g>
    <g
       id="g3333"
       transform="translate(-28.382725,-92.441992)">
      <path
         style="fill:none;fill-rule:evenodd;stroke:#000000;stroke-width:1px;stroke-linecap:butt;stroke-linejoin:miter;stroke-opacity:1"
         d="M 390,628 L 420,598"
         id="path3335"
         transform="translate(319.14847,267.35953)"
         sodipodi:nodetypes="cc" />
      <path
         sodipodi:type="arc"
         style="opacity:1;fill:#00ff00;fill-opacity:1;fill-rule:nonzero;stroke:#000000;stroke-width:2;stroke-linecap:butt;stroke-miterlimit:4;stroke-dasharray:none;stroke-dashoffset:0;stroke-opacity:1"
         id="path3337"
         sodipodi:cx="305"
         sodipodi:cy="663"
         sodipodi:rx="5"
         sodipodi:ry="5"
         d="M 310,663 A 5,5 0 1 1 300,663 A 5,5 0 1 1 310,663 z"
         transform="translate(404.14847,232.30923)" />
    </g>
    <g
       transform="matrix(-0.9997492,-2.2395377e-2,2.2395377e-2,-0.9997492,1588.7315,1427.0555)"
       id="g3369">
      <path
         sodipodi:nodetypes="cc"
         transform="translate(319.14847,267.35953)"
         id="path3371"
         d="M 390,628 L 420,598"
         style="fill:none;fill-rule:evenodd;stroke:#000000;stroke-width:1px;stroke-linecap:butt;stroke-linejoin:miter;stroke-opacity:1" />
      <path
         transform="translate(404.14847,232.30923)"
         d="M 310,663 A 5,5 0 1 1 300,663 A 5,5 0 1 1 310,663 z"
         sodipodi:ry="5"
         sodipodi:rx="5"
         sodipodi:cy="663"
         sodipodi:cx="305"
         id="path3373"
         style="opacity:1;fill:#00ff00;fill-opacity:1;fill-rule:nonzero;stroke:#000000;stroke-width:2;stroke-linecap:butt;stroke-miterlimit:4;stroke-dasharray:none;stroke-dashoffset:0;stroke-opacity:1"
         sodipodi:type="arc" />
    </g>
    <g
       transform="matrix(-0.7691568,0.6390601,-0.6390601,-0.7691568,1960.597,727.60892)"
       id="g3363">
      <path
         sodipodi:nodetypes="cc"
         transform="translate(319.14847,267.35953)"
         id="path3365"
         d="M 390,628 L 420,598"
         style="fill:none;fill-rule:evenodd;stroke:#000000;stroke-width:1px;stroke-linecap:butt;stroke-linejoin:miter;stroke-opacity:1" />
      <path
         transform="translate(404.14847,232.30923)"
         d="M 310,663 A 5,5 0 1 1 300,663 A 5,5 0 1 1 310,663 z"
         sodipodi:ry="5"
         sodipodi:rx="5"
         sodipodi:cy="663"
         sodipodi:cx="305"
         id="path3367"
         style="opacity:1;fill:#00ff00;fill-opacity:1;fill-rule:nonzero;stroke:#000000;stroke-width:2;stroke-linecap:butt;stroke-miterlimit:4;stroke-dasharray:none;stroke-dashoffset:0;stroke-opacity:1"
         sodipodi:type="arc" />
    </g>
    <g
       transform="matrix(-0.345534,0.9384062,-0.9384062,-0.345534,1854.3943,149.26737)"
       id="g3357">
      <path
         sodipodi:nodetypes="cc"
         transform="translate(319.14847,267.35953)"
         id="path3359"
         d="M 390,628 L 420,598"
         style="fill:none;fill-rule:evenodd;stroke:#000000;stroke-width:1px;stroke-linecap:butt;stroke-linejoin:miter;stroke-opacity:1" />
      <path
         transform="translate(404.14847,232.30923)"
         d="M 310,663 A 5,5 0 1 1 300,663 A 5,5 0 1 1 310,663 z"
         sodipodi:ry="5"
         sodipodi:rx="5"
         sodipodi:cy="663"
         sodipodi:cx="305"
         id="path3361"
         style="opacity:1;fill:#00ff00;fill-opacity:1;fill-rule:nonzero;stroke:#000000;stroke-width:2;stroke-linecap:butt;stroke-miterlimit:4;stroke-dasharray:none;stroke-dashoffset:0;stroke-opacity:1"
         sodipodi:type="arc" />
    </g>
    <g
       id="g3329"
       transform="matrix(0.9396567,-0.3421188,0.3421188,0.9396567,-258.60307,219.49866)">
      <path
         sodipodi:nodetypes="cc"
         transform="translate(319.14847,267.35953)"
         id="path3327"
         d="M 390,628 L 420,598"
         style="fill:none;fill-rule:evenodd;stroke:#000000;stroke-width:1px;stroke-linecap:butt;stroke-linejoin:miter;stroke-opacity:1" />
      <path
         transform="translate(404.14847,232.30923)"
         d="M 310,663 A 5,5 0 1 1 300,663 A 5,5 0 1 1 310,663 z"
         sodipodi:ry="5"
         sodipodi:rx="5"
         sodipodi:cy="663"
         sodipodi:cx="305"
         id="path3273"
         style="opacity:1;fill:#00ff00;fill-opacity:1;fill-rule:nonzero;stroke:#000000;stroke-width:2;stroke-linecap:butt;stroke-miterlimit:4;stroke-dasharray:none;stroke-dashoffset:0;stroke-opacity:1"
         sodipodi:type="arc" />
    </g>
    <g
       id="g3303"
       transform="translate(-146.56342,-82.45814)">
      <path
         transform="translate(319.14847,267.35953)"
         d="M 630,573 A 60,25 0 1 1 510,573 A 60,25 0 1 1 630,573 z"
         sodipodi:ry="25"
         sodipodi:rx="60"
         sodipodi:cy="573"
         sodipodi:cx="570"
         id="path3295"
         style="opacity:1;fill:#e0e0e0;fill-opacity:1;fill-rule:nonzero;stroke:#000000;stroke-width:2;stroke-linecap:butt;stroke-miterlimit:4;stroke-dasharray:none;stroke-dashoffset:0;stroke-opacity:1"
         sodipodi:type="arc" />
      <text
         sodipodi:linespacing="100%"
         id="text3275"
         y="845.32538"
         x="889.42096"
         style="font-size:18px;font-style:normal;font-variant:normal;font-weight:normal;font-stretch:normal;text-align:center;line-height:100%;writing-mode:lr-tb;text-anchor:middle;fill:#000000;fill-opacity:1;stroke:none;stroke-width:1px;stroke-linecap:butt;stroke-linejoin:miter;stroke-opacity:1;font-family:Bitstream Vera Sans"
         xml:space="preserve"><tspan
           y="845.32538"
           x="889.42096"
           id="tspan3277"
           sodipodi:role="line">gmail.com</tspan></text>
    </g>
    <path
       transform="matrix(0.8305556,0,0,0.8266667,510.45907,217.40681)"
       d="M 630,573 A 60,25 0 1 1 510,573 A 60,25 0 1 1 630,573 z"
       sodipodi:ry="25"
       sodipodi:rx="60"
       sodipodi:cy="573"
       sodipodi:cx="570"
       id="path3301"
       style="fill:#e0e0e0;fill-opacity:1;fill-rule:nonzero;stroke:#000000;stroke-width:2.41368413;stroke-linecap:butt;stroke-miterlimit:4;stroke-dasharray:none;stroke-dashoffset:0;stroke-opacity:1"
       sodipodi:type="arc" />
    <g
       id="g3313"
       transform="translate(-319.66664,-75)">
      <path
         transform="matrix(1.1694444,0,0,1,482.39847,57.35953)"
         d="M 630,573 A 60,25 0 1 1 510,573 A 60,25 0 1 1 630,573 z"
         sodipodi:ry="25"
         sodipodi:rx="60"
         sodipodi:cy="573"
         sodipodi:cx="570"
         id="path3299"
         style="opacity:1;fill:#e0e0e0;fill-opacity:1;fill-rule:nonzero;stroke:#000000;stroke-width:1.84943974;stroke-linecap:butt;stroke-miterlimit:4;stroke-dasharray:none;stroke-dashoffset:0;stroke-opacity:1"
         sodipodi:type="arc" />
      <text
         sodipodi:linespacing="100%"
         id="text3291"
         y="634.80682"
         x="1148.3842"
         style="font-size:18px;font-style:normal;font-variant:normal;font-weight:normal;font-stretch:normal;text-align:center;line-height:100%;writing-mode:lr-tb;text-anchor:middle;fill:#000000;fill-opacity:1;stroke:none;stroke-width:1px;stroke-linecap:butt;stroke-linejoin:miter;stroke-opacity:1;font-family:Bitstream Vera Sans"
         xml:space="preserve"><tspan
           y="634.80682"
           x="1148.3842"
           id="tspan3293"
           sodipodi:role="line">montague.net</tspan></text>
    </g>
    <g
       transform="matrix(0.9790468,0.2036355,-0.2036355,0.9790468,16.157495,-340.70268)"
       id="g3345">
      <path
         sodipodi:nodetypes="cc"
         transform="translate(319.14847,267.35953)"
         id="path3347"
         d="M 390,628 L 420,598"
         style="fill:none;fill-rule:evenodd;stroke:#000000;stroke-width:1px;stroke-linecap:butt;stroke-linejoin:miter;stroke-opacity:1" />
      <path
         transform="translate(404.14847,232.30923)"
         d="M 310,663 A 5,5 0 1 1 300,663 A 5,5 0 1 1 310,663 z"
         sodipodi:ry="5"
         sodipodi:rx="5"
         sodipodi:cy="663"
         sodipodi:cx="305"
         id="path3349"
         style="opacity:1;fill:#00ff00;fill-opacity:1;fill-rule:nonzero;stroke:#000000;stroke-width:2;stroke-linecap:butt;stroke-miterlimit:4;stroke-dasharray:none;stroke-dashoffset:0;stroke-opacity:1"
         sodipodi:type="arc" />
    </g>
    <g
       transform="matrix(0.186531,0.9824491,-0.9824491,0.186531,1285.5334,-253.25792)"
       id="g3351">
      <path
         sodipodi:nodetypes="cc"
         transform="translate(319.14847,267.35953)"
         id="path3353"
         d="M 390,628 L 420,598"
         style="fill:none;fill-rule:evenodd;stroke:#000000;stroke-width:1px;stroke-linecap:butt;stroke-linejoin:miter;stroke-opacity:1" />
      <path
         transform="translate(404.14847,232.30923)"
         d="M 310,663 A 5,5 0 1 1 300,663 A 5,5 0 1 1 310,663 z"
         sodipodi:ry="5"
         sodipodi:rx="5"
         sodipodi:cy="663"
         sodipodi:cx="305"
         id="path3355"
         style="opacity:1;fill:#00ff00;fill-opacity:1;fill-rule:nonzero;stroke:#000000;stroke-width:2;stroke-linecap:butt;stroke-miterlimit:4;stroke-dasharray:none;stroke-dashoffset:0;stroke-opacity:1"
         sodipodi:type="arc" />
    </g>
    <g
       id="g3308"
       transform="translate(-180,20)">
      <path
         sodipodi:type="arc"
         style="opacity:1;fill:#e0e0e0;fill-opacity:1;fill-rule:nonzero;stroke:#000000;stroke-width:2;stroke-linecap:butt;stroke-miterlimit:4;stroke-dasharray:none;stroke-dashoffset:0;stroke-opacity:1"
         id="path3297"
         sodipodi:cx="570"
         sodipodi:cy="573"
         sodipodi:rx="60"
         sodipodi:ry="25"
         d="M 630,573 A 60,25 0 1 1 510,573 A 60,25 0 1 1 630,573 z"
         transform="translate(219.14847,52.35953)" />
      <text
         sodipodi:linespacing="100%"
         id="text3287"
         y="630.32538"
         x="789.42096"
         style="font-size:18px;font-style:normal;font-variant:normal;font-weight:normal;font-stretch:normal;text-align:center;line-height:100%;writing-mode:lr-tb;text-anchor:middle;fill:#000000;fill-opacity:1;stroke:none;stroke-width:1px;stroke-linecap:butt;stroke-linejoin:miter;stroke-opacity:1;font-family:Bitstream Vera Sans"
         xml:space="preserve"><tspan
           y="630.32538"
           x="789.42096"
           id="tspan3289"
           sodipodi:role="line">capulet.com</tspan></text>
    </g>
    <g
       id="g4550">
      <g
         id="g3395"
         transform="matrix(-0.9936138,0.1128341,-0.1128341,-0.9936138,1839.8215,1465.4992)">
        <path
           style="fill:none;fill-rule:evenodd;stroke:#000000;stroke-width:1px;stroke-linecap:butt;stroke-linejoin:miter;stroke-opacity:1"
           d="M 390,628 L 420,598"
           id="path3397"
           transform="translate(319.14847,267.35953)"
           sodipodi:nodetypes="cc" />
        <path
           sodipodi:type="arc"
           style="opacity:1;fill:#ffff00;fill-opacity:1;fill-rule:nonzero;stroke:#000000;stroke-width:2;stroke-linecap:butt;stroke-miterlimit:4;stroke-dasharray:none;stroke-dashoffset:0;stroke-opacity:1"
           id="path3399"
           sodipodi:cx="305"
           sodipodi:cy="663"
           sodipodi:rx="5"
           sodipodi:ry="5"
           d="M 310,663 A 5,5 0 1 1 300,663 A 5,5 0 1 1 310,663 z"
           transform="translate(404.14847,232.30923)" />
      </g>
      <g
         id="g3401"
         transform="matrix(-1.0958922e-2,-0.9999399,0.9999399,-1.0958922e-2,146.66425,1444.2222)">
        <path
           style="fill:none;fill-rule:evenodd;stroke:#000000;stroke-width:1px;stroke-linecap:butt;stroke-linejoin:miter;stroke-opacity:1"
           d="M 390,628 L 420,598"
           id="path3403"
           transform="translate(319.14847,267.35953)"
           sodipodi:nodetypes="cc" />
        <path
           sodipodi:type="arc"
           style="opacity:1;fill:#ffff00;fill-opacity:1;fill-rule:nonzero;stroke:#000000;stroke-width:2;stroke-linecap:butt;stroke-miterlimit:4;stroke-dasharray:none;stroke-dashoffset:0;stroke-opacity:1"
           id="path3405"
           sodipodi:cx="305"
           sodipodi:cy="663"
           sodipodi:rx="5"
           sodipodi:ry="5"
           d="M 310,663 A 5,5 0 1 1 300,663 A 5,5 0 1 1 310,663 z"
           transform="translate(404.14847,232.30923)" />
      </g>
      <g
         id="g3407"
         transform="matrix(-0.4938481,-0.8695482,0.8695482,-0.4938481,611.70372,1765.4409)">
        <path
           style="fill:none;fill-rule:evenodd;stroke:#000000;stroke-width:1px;stroke-linecap:butt;stroke-linejoin:miter;stroke-opacity:1"
           d="M 390,628 L 420,598"
           id="path3409"
           transform="translate(319.14847,267.35953)"
           sodipodi:nodetypes="cc" />
        <path
           sodipodi:type="arc"
           style="opacity:1;fill:#ffff00;fill-opacity:1;fill-rule:nonzero;stroke:#000000;stroke-width:2;stroke-linecap:butt;stroke-miterlimit:4;stroke-dasharray:none;stroke-dashoffset:0;stroke-opacity:1"
           id="path3411"
           sodipodi:cx="305"
           sodipodi:cy="663"
           sodipodi:rx="5"
           sodipodi:ry="5"
           d="M 310,663 A 5,5 0 1 1 300,663 A 5,5 0 1 1 310,663 z"
           transform="translate(404.14847,232.30923)" />
      </g>
      <g
         id="g3413"
         transform="matrix(-0.9255174,-0.3787052,0.3787052,-0.9255174,1361.7919,1770.6485)">
        <path
           style="fill:none;fill-rule:evenodd;stroke:#000000;stroke-width:1px;stroke-linecap:butt;stroke-linejoin:miter;stroke-opacity:1"
           d="M 390,628 L 420,598"
           id="path3415"
           transform="translate(319.14847,267.35953)"
           sodipodi:nodetypes="cc" />
        <path
           sodipodi:type="arc"
           style="opacity:1;fill:#ffff00;fill-opacity:1;fill-rule:nonzero;stroke:#000000;stroke-width:2;stroke-linecap:butt;stroke-miterlimit:4;stroke-dasharray:none;stroke-dashoffset:0;stroke-opacity:1"
           id="path3417"
           sodipodi:cx="305"
           sodipodi:cy="663"
           sodipodi:rx="5"
           sodipodi:ry="5"
           d="M 310,663 A 5,5 0 1 1 300,663 A 5,5 0 1 1 310,663 z"
           transform="translate(404.14847,232.30923)" />
      </g>
    </g>
    <g
       id="g3266"
       transform="translate(92.22727,-118.54544)">
      <path
         sodipodi:type="arc"
         style="fill:#ff0000;fill-opacity:1;fill-rule:nonzero;stroke:#000000;stroke-width:7.60903883;stroke-linecap:butt;stroke-miterlimit:4;stroke-dasharray:none;stroke-dashoffset:0;stroke-opacity:1"
         id="path2436"
         sodipodi:cx="225"
         sodipodi:cy="323"
         sodipodi:rx="35"
         sodipodi:ry="35"
         d="M 260,323 A 35,35 0 1 1 190,323 A 35,35 0 1 1 260,323 z"
         transform="matrix(0.2628453,0,0,0.2628453,815.00828,724.73321)" />
      <rect
         transform="matrix(0,-1,1,0,0,0)"
         style="fill:#e0ffff;fill-opacity:1;fill-rule:nonzero;stroke:#000000;stroke-width:1.99999988;stroke-linecap:butt;stroke-miterlimit:4;stroke-dasharray:none;stroke-dashoffset:0;stroke-opacity:1"
         id="rect2438"
         width="28.54545"
         height="9.4545441"
         x="-823.90497"
         y="886.9212" />
      <path
         transform="matrix(0.2628453,0,0,0.2628453,850.00828,724.73321)"
         d="M 260,323 A 35,35 0 1 1 190,323 A 35,35 0 1 1 260,323 z"
         sodipodi:ry="35"
         sodipodi:rx="35"
         sodipodi:cy="323"
         sodipodi:cx="225"
         id="path2458"
         style="fill:#0000ff;fill-opacity:1;fill-rule:nonzero;stroke:#000000;stroke-width:7.60903883;stroke-linecap:butt;stroke-miterlimit:4;stroke-dasharray:none;stroke-dashoffset:0;stroke-opacity:1"
         sodipodi:type="arc" />
    </g>
    <path
       style="fill:none;fill-rule:evenodd;stroke:#000000;stroke-width:2;stroke-linecap:butt;stroke-linejoin:miter;marker-start:url(#Arrow1Mstart);marker-end:url(#Arrow1Mend);stroke-miterlimit:4;stroke-dasharray:none;stroke-opacity:1"
       d="M 350,388 C 350,388 600,418 600,418"
       id="path3438"
       transform="translate(319.14847,267.35953)"
       sodipodi:nodetypes="cc" />
    <path
       sodipodi:nodetypes="cc"
       transform="translate(319.14847,267.35953)"
       id="path4532"
       d="M 550,308 C 550,308 610,408 610,408"
       style="fill:none;fill-rule:evenodd;stroke:#000000;stroke-width:2;stroke-linecap:butt;stroke-linejoin:miter;marker-start:url(#Arrow1Mstart);marker-end:url(#Arrow1Mend);stroke-miterlimit:4;stroke-dasharray:none;stroke-opacity:1" />
    <path
       style="fill:none;fill-rule:evenodd;stroke:#000000;stroke-width:2;stroke-linecap:butt;stroke-linejoin:miter;marker-start:url(#Arrow1Mstart);marker-end:url(#Arrow1Mend);stroke-miterlimit:4;stroke-dasharray:none;stroke-opacity:1"
       d="M 460,308 C 460,308 330,358 330,358"
       id="path4534"
       transform="translate(319.14847,267.35953)"
       sodipodi:nodetypes="cc" />
    <path
       sodipodi:nodetypes="cc"
       transform="translate(319.14847,267.35953)"
       id="path4536"
       d="M 610,428 C 610,428 480,478 480,478"
       style="fill:none;fill-rule:evenodd;stroke:#000000;stroke-width:2;stroke-linecap:butt;stroke-linejoin:miter;marker-start:url(#Arrow1Mstart);marker-end:url(#Arrow1Mend);stroke-miterlimit:4;stroke-dasharray:none;stroke-opacity:1" />
  </g>
</svg>
